<svg width="96" height="96" viewBox="0 0 96 96" fill="none" xmlns="http://www.w3.org/2000/svg">
<g filter="url(#filter0_d_5_40)">
<circle cx="48" cy="43" r="28" fill="#F23C72"/>
</g>
<path d="M61.4667 44.5833C58.85 37.7833 49.5333 37.4167 51.7833 27.5333C51.95 26.8 51.1667 26.2333 50.5333 26.6167C44.4833 30.1833 40.1333 37.3333 43.7833 46.7C44.0833 47.4667 43.1833 48.1833 42.5333 47.6833C39.5167 45.4 39.2 42.1167 39.4667 39.7667C39.5667 38.9 38.4333 38.4833 37.95 39.2C36.8167 40.9333 35.6667 43.7333 35.6667 47.95C36.3 57.2833 44.1833 60.15 47.0167 60.5167C51.0667 61.0333 55.45 60.2833 58.6 57.4C62.0667 54.1833 63.3333 49.05 61.4667 44.5833ZM46 52.9667C48.4 52.3833 49.6333 50.65 49.9667 49.1167C50.5167 46.7333 48.3667 44.4 49.8167 40.6333C50.3667 43.75 55.2667 45.7 55.2667 49.1C55.4 53.3167 50.8333 56.9333 46 52.9667Z" fill="white"/>
<defs>
<filter id="filter0_d_5_40" x="0" y="0" width="96" height="96" filterUnits="userSpaceOnUse" color-interpolation-filters="sRGB">
<feFlood flood-opacity="0" result="BackgroundImageFix"/>
<feColorMatrix in="SourceAlpha" type="matrix" values="0 0 0 0 0 0 0 0 0 0 0 0 0 0 0 0 0 0 127 0" result="hardAlpha"/>
<feOffset dy="5"/>
<feGaussianBlur stdDeviation="10"/>
<feComposite in2="hardAlpha" operator="out"/>
<feColorMatrix type="matrix" values="0 0 0 0 0.94902 0 0 0 0 0.235294 0 0 0 0 0.447059 0 0 0 0.7 0"/>
<feBlend mode="normal" in2="BackgroundImageFix" result="effect1_dropShadow_5_40"/>
<feBlend mode="normal" in="SourceGraphic" in2="effect1_dropShadow_5_40" result="shape"/>
</filter>
</defs>
</svg>
