<svg width="40" height="41" viewBox="0 0 40 41" fill="none" xmlns="http://www.w3.org/2000/svg">
<path d="M32.5122 21.4127C29.9137 14.6599 20.6618 14.2958 22.8961 4.48104C23.0616 3.7528 22.2837 3.19006 21.6548 3.57074C15.6468 7.11264 11.327 14.213 14.9517 23.5146C15.2496 24.276 14.3558 24.9877 13.7104 24.4911C10.7146 22.2237 10.4002 18.9631 10.665 16.6294C10.7643 15.7688 9.63882 15.355 9.15884 16.0667C8.03337 17.788 6.89136 20.5686 6.89136 24.756C7.52029 34.0245 15.3489 36.8713 18.1626 37.2354C22.1844 37.7485 26.5373 37.0037 29.6655 34.1403C33.1081 30.946 34.3659 25.8483 32.5122 21.4127V21.4127ZM17.1529 29.7378C19.5363 29.1585 20.7611 27.4372 21.0921 25.9145C21.6383 23.5477 19.5032 21.2306 20.9431 17.4901C21.4893 20.5851 26.3553 22.5216 26.3553 25.898C26.4877 30.0854 21.9527 33.6769 17.1529 29.7378V29.7378Z" fill="white"/>
</svg>
