<?xml version="1.0" encoding="UTF-8"?>
<!DOCTYPE svg PUBLIC "-//W3C//DTD SVG 1.1//EN" "http://www.w3.org/Graphics/SVG/1.1/DTD/svg11.dtd">
<!-- Creator: CorelDRAW 2020 (64 Bit) -->
<svg xmlns="http://www.w3.org/2000/svg" xml:space="preserve" width="19.3412mm" height="19.3413mm" version="1.1" style="shape-rendering:geometricPrecision; text-rendering:geometricPrecision; image-rendering:optimizeQuality; fill-rule:evenodd; clip-rule:evenodd"
viewBox="0 0 1919.96 1919.97"
 xmlns:xlink="http://www.w3.org/1999/xlink"
 xmlns:xodm="http://www.corel.com/coreldraw/odm/2003">
 <defs>
  <style type="text/css">
   <![CDATA[
    .fil0 {fill:red;fill-rule:nonzero}
    .fil1 {fill:white;fill-rule:nonzero}
   ]]>
  </style>
 </defs>
 <g id="Camada_x0020_1">
  <metadata id="CorelCorpID_0Corel-Layer"/>
  <path class="fil0" d="M274.69 274.7l0 0c-366.26,366.27 -366.26,960.1 0,1326.37 295.7,295.7 739.66,352.52 1092.51,170.79l552.76 148.11 -148.11 -552.77c181.74,-352.85 124.91,-796.8 -170.78,-1092.5 -366.27,-366.27 -960.1,-366.27 -1326.38,0z"/>
  <path class="fil1" d="M1212.09 707.88c135.95,135.95 135.95,357.15 0,493.1 -107.66,107.66 -270.87,133.18 -406.15,63.51l-30.51 -15.72 -33.15 8.88 -109.26 29.27 29.27 -109.25 8.88 -33.15 -15.71 -30.51c-69.67,-135.27 -44.14,-298.49 63.51,-406.15 135.95,-135.95 357.16,-135.95 493.1,0zm114 -114.01l0 0c-195.68,-195.68 -512.94,-195.68 -708.62,0 -157.98,157.99 -188.34,395.17 -91.25,583.68l-79.13 295.32 295.32 -79.14c188.51,97.1 425.69,66.74 583.67,-91.24 195.69,-195.68 195.69,-512.94 0,-708.63z"/>
 </g>
</svg>
